<?xml version="1.0" encoding="utf-8"?>
<!-- Generator: Adobe Illustrator 22.0.1, SVG Export Plug-In . SVG Version: 6.00 Build 0)  -->
<svg version="1.1" id="Ebene_1" xmlns="http://www.w3.org/2000/svg" xmlns:xlink="http://www.w3.org/1999/xlink" x="0px" y="0px"
	 viewBox="0 0 50 50" style="enable-background:new 0 0 50 50;" xml:space="preserve">
<style type="text/css">
	.st0{fill:#FF8200;}
</style>
<path class="st0" d="M42,48.3L1.7,8c-2-2-2.2-5-0.4-6.8S6.1-0.3,8,1.7L48.3,42c2,2,2.2,5,0.4,6.8C47,50.5,43.9,50.3,42,48.3z"/>
<path class="st0" d="M48.7,1.3C50.5,3,50.3,6.1,48.3,8L8,48.3c-2,2-5,2.2-6.8,0.4C-0.5,47-0.3,43.9,1.7,42L42,1.7
	C43.9-0.3,47-0.5,48.7,1.3z"/>
</svg>
