<?xml version="1.0" encoding="utf-8"?>
<!-- Generator: Adobe Illustrator 22.0.1, SVG Export Plug-In . SVG Version: 6.00 Build 0)  -->
<svg version="1.1" id="Ebene_1" xmlns="http://www.w3.org/2000/svg" xmlns:xlink="http://www.w3.org/1999/xlink" x="0px" y="0px"
	 viewBox="0 0 100 100" style="enable-background:new 0 0 100 100;" xml:space="preserve">
<style type="text/css">
	.st0{fill:#FFFFFF;}
</style>
<circle class="st0" cx="50" cy="50" r="50"/>
<path d="M67,73.3L26.7,33c-2-2-2.2-5-0.4-6.8c1.8-1.8,4.8-1.5,6.7,0.5L73.3,67c2,2,2.2,5,0.4,6.8C72,75.5,68.9,75.3,67,73.3z"/>
<path d="M73.7,26.3c1.8,1.7,1.6,4.8-0.4,6.7L33,73.3c-2,2-5,2.2-6.8,0.4c-1.7-1.7-1.5-4.8,0.5-6.7L67,26.7
	C68.9,24.7,72,24.5,73.7,26.3z"/>
</svg>
