<?xml version="1.0" encoding="utf-8"?>
<!-- Generator: Adobe Illustrator 22.0.1, SVG Export Plug-In . SVG Version: 6.00 Build 0)  -->
<svg version="1.1" id="Ebene_1" xmlns="http://www.w3.org/2000/svg" xmlns:xlink="http://www.w3.org/1999/xlink" x="0px" y="0px"
	 viewBox="0 0 50 50" style="enable-background:new 0 0 50 50;" xml:space="preserve">
<style type="text/css">
	.st0{fill:#3C5096;}
</style>
<path class="st0" d="M46.2,9H3.8C1.7,9,0,7,0,4.5S1.7,0,3.8,0h42.4C48.3,0,50,2,50,4.5S48.3,9,46.2,9z"/>
<path class="st0" d="M46.2,29.5H3.8c-2.1,0-3.8-2-3.8-4.5s1.7-4.5,3.8-4.5h42.4c2.1,0,3.8,2,3.8,4.5S48.3,29.5,46.2,29.5z"/>
<path class="st0" d="M46.2,50H3.8C1.7,50,0,48,0,45.5S1.7,41,3.8,41h42.4c2.1,0,3.8,2,3.8,4.5S48.3,50,46.2,50z"/>
</svg>
