<?xml version="1.0" encoding="utf-8"?>
<!-- Generator: Adobe Illustrator 23.0.1, SVG Export Plug-In . SVG Version: 6.00 Build 0)  -->
<svg version="1.1" id="Ebene_1" xmlns="http://www.w3.org/2000/svg" xmlns:xlink="http://www.w3.org/1999/xlink" x="0px" y="0px"
	 viewBox="0 0 100 100" style="enable-background:new 0 0 100 100;" xml:space="preserve">
<style type="text/css">
	.st0{fill:#006432;}
	.st1{fill:#FFFFFF;}
</style>
<circle class="st0" cx="50" cy="50" r="50"/>
<path class="st1" d="M78.5,54.4l-57,0c-2.8,0-5.1-2-5.1-4.5c0-2.5,2.3-4.5,5.1-4.4h57c2.8,0,5.1,2,5.1,4.5
	C83.6,52.5,81.3,54.5,78.5,54.4z"/>
<path class="st1" d="M50,16.5c2.5-0.1,4.5,2.3,4.5,5l0,57c0,2.8-2,5.1-4.5,5.1c-2.4,0-4.5-2.3-4.4-5.1l0-57
	C45.5,18.7,47.5,16.4,50,16.5z"/>
</svg>
