<?xml version="1.0" encoding="utf-8"?>
<!-- Generator: Adobe Illustrator 23.0.1, SVG Export Plug-In . SVG Version: 6.00 Build 0)  -->
<svg version="1.1" id="Ebene_1" xmlns="http://www.w3.org/2000/svg" xmlns:xlink="http://www.w3.org/1999/xlink" x="0px" y="0px"
	 viewBox="0 0 100 100" style="enable-background:new 0 0 100 100;" xml:space="preserve">
<style type="text/css">
	.st0{fill:#B4B4B4;}
	.st1{fill:#FFFFFF;}
	.st2{fill:none;stroke:#FFFFFF;stroke-width:9;stroke-linecap:round;stroke-miterlimit:10;}
</style>
<circle class="st0" cx="50" cy="50" r="50"/>
<g>
	<circle class="st1" cx="50" cy="58.7" r="27.5"/>
	<path class="st0" d="M54.5,43.1C53.1,42.4,51.6,42,50,42c-1.6,0-3.1,0.4-4.4,1.1c-3.1,1.6-5.2,4.8-5.2,8.5s2.1,6.9,5.2,8.5v10.2
		c-0.1,2.8,2,5.1,4.4,5.1c2.5,0,4.5-2.3,4.5-5.1V60.1c3.1-1.6,5.2-4.8,5.2-8.5S57.5,44.7,54.5,43.1z"/>
	<path class="st2" d="M36,44.7V28.1c0,0,0-14.3,14-14.3"/>
	<path class="st2" d="M64,44.7V28.1c0,0,0-14.3-14-14.3"/>
</g>
</svg>
