<?xml version="1.0" encoding="utf-8"?>
<!-- Generator: Adobe Illustrator 23.0.1, SVG Export Plug-In . SVG Version: 6.00 Build 0)  -->
<svg version="1.1" id="Ebene_1" xmlns="http://www.w3.org/2000/svg" xmlns:xlink="http://www.w3.org/1999/xlink" x="0px" y="0px"
	 viewBox="0 0 100 100" style="enable-background:new 0 0 100 100;" xml:space="preserve">
<style type="text/css">
	.st0{fill:#C8C8C8;}
	.st1{fill:#FFFFFF;}
</style>
<g>
	<path class="st0" d="M50,0C22.4,0,0,22.4,0,50s22.4,50,50,50s50-22.4,50-50S77.6,0,50,0L50,0z"/>
</g>
<g>
	<path class="st1" d="M31.5,45.5h47c2.8,0,5.1,2,5.1,4.5s-2.3,4.5-5.1,4.4h-47V45.5z"/>
	<g>
		<g>
			<g>
				<g>
					<path class="st1" d="M47.6,63c0,2.8-1.9,3.9-4.3,2.5l-22.5-13c-2.4-1.4-2.4-3.6,0-5l22.5-13c2.4-1.4,4.3-0.2,4.3,2.5V63z"/>
				</g>
			</g>
		</g>
	</g>
</g>
</svg>
