<?xml version="1.0" encoding="utf-8"?>
<!-- Generator: Adobe Illustrator 23.0.1, SVG Export Plug-In . SVG Version: 6.00 Build 0)  -->
<svg version="1.1" id="Ebene_1" xmlns="http://www.w3.org/2000/svg" xmlns:xlink="http://www.w3.org/1999/xlink" x="0px" y="0px"
	 viewBox="0 0 100 100" style="enable-background:new 0 0 100 100;" xml:space="preserve">
<style type="text/css">
	.st0{fill:#3C5096;}
	.st1{fill:#FFFFFF;}
</style>
<circle class="st0" cx="50" cy="50" r="50"/>
<g>
	<path class="st1" d="M77.4,21.6c1.8,1.7,1.6,4.8-0.4,6.7L36.8,68.6c-2,2-5,2.2-6.8,0.4c-1.7-1.7-1.6-4.8,0.5-6.7L70.8,22
		C72.7,19.9,75.7,19.7,77.4,21.6z"/>
	<path class="st1" d="M69.8,14c1.8,1.7,1.6,4.8-0.4,6.7L29.2,61c-2,2-5,2.2-6.8,0.4c-1.7-1.7-1.6-4.8,0.5-6.7l40.3-40.3
		C65.1,12.3,68.1,12.1,69.8,14z"/>
	<path class="st1" d="M85,29.1c1.8,1.7,1.6,4.8-0.4,6.7L44.3,76.2c-2,2-5,2.2-6.8,0.4c-1.7-1.7-1.6-4.8,0.5-6.7l40.3-40.3
		C80.3,27.5,83.3,27.3,85,29.1z"/>
	<g>
		<path class="st1" d="M35.7,77.8c1.9,1.9,1.3,3.5-1.5,3.5H22.8c-2.8,0-5-2.2-5-5V64.8c0-2.8,1.6-3.4,3.5-1.5L35.7,77.8z"/>
	</g>
</g>
</svg>
