<?xml version="1.0" encoding="utf-8"?>
<!-- Generator: Adobe Illustrator 23.0.1, SVG Export Plug-In . SVG Version: 6.00 Build 0)  -->
<svg version="1.1" id="Ebene_1" xmlns="http://www.w3.org/2000/svg" xmlns:xlink="http://www.w3.org/1999/xlink" x="0px" y="0px"
	 viewBox="0 0 100 100" style="enable-background:new 0 0 100 100;" xml:space="preserve">
<style type="text/css">
	.st0{fill:#C8C8C8;}
	.st1{fill:#FFFFFF;}
</style>
<path class="st0" d="M50,50c19.4,0,35.3,15.1,36.4,34.2c8.4-8.9,13.6-21,13.6-34.2c0-27.6-22.4-50-50-50S0,22.4,0,50
	c0,13.2,5.2,25.3,13.6,34.2C14.7,65.1,30.6,50,50,50z"/>
<path class="st1" d="M50,100c14.4,0,27.3-6.1,36.4-15.8C85.3,65.1,69.4,50,50,50S14.7,65.1,13.6,84.2C22.7,93.9,35.6,100,50,100z"/>
<circle class="st1" cx="50" cy="31.9" r="18.1"/>
<g>
	<path class="st0" d="M50,5c24.8,0,45,20.2,45,45S74.8,95,50,95S5,74.8,5,50S25.2,5,50,5 M50,0C22.4,0,0,22.4,0,50s22.4,50,50,50
		s50-22.4,50-50S77.6,0,50,0L50,0z"/>
</g>
</svg>
