<?xml version="1.0" encoding="utf-8"?>
<!-- Generator: Adobe Illustrator 22.0.1, SVG Export Plug-In . SVG Version: 6.00 Build 0)  -->
<svg version="1.1" xmlns="http://www.w3.org/2000/svg" xmlns:xlink="http://www.w3.org/1999/xlink" x="0px" y="0px"
	 viewBox="0 0 2126 2126" style="enable-background:new 0 0 2126 2126;" xml:space="preserve">
<style type="text/css">
	.st0{fill:#FFFFFF;}
	.st1{fill:#3C5096;}
	.st2{fill:#FF8200;}
	.st3{fill:#C8C8C8;}
</style>
<g id="Kontur">
	<g>
		<path class="st0" d="M588,397.5l84.5,39l17,36.5l93-23l12.5,63.5l12-67.5l101.5-14.5L919,475l3.5-45.5L1030,424l12,97.5l1-43.5
			l53.5-54.5c0,0,160,15.5,219,22.5l10.5,56l12-53.5l95,22l13-31.5l49-37.5l200,71.5l53,116h300.5l-190,244l92.5,204l-203.5,209.5
			c0,0-30-19.1-67.2-40.8c-27.9-15.8-54.3-29.6-78.9-41.4L1461,1345.5c0,0-13,235.5-256,330l-145.5,188l-148-191c0,0-212-75-246-320
			l-146.8-190.1c-32.4,14.7-65.8,31.1-98.1,48.9L372,1240l-201-201l93.5-207l-187-242h298l52-116.5l127-51.5l13,30.5L588,397.5
			 M571.2,356.7L559.9,387l-0.2,0.5l-16.5,6.7l-127,51.5l-11.2,4.5l-4.9,11L356,560H77.5H16.4l37.4,48.3l176,227.7l-86.1,190.6
			l-8.5,18.9l14.7,14.7l201,201l16.4,16.4l20-11.8l48.2-28.4c22.8-12.6,47.7-25.2,74.1-37.7L637,1364.6
			c8.9,56.8,27.5,109.4,55.5,156.6c23.5,39.5,53.5,75.1,89.2,105.9c47.6,41.1,92.7,62.5,111.1,70.3l143,184.5l23.7,30.6l23.7-30.6
			l140.5-181.5c56-22.9,104.8-54.8,145-95c33.7-33.7,61.5-73.2,82.5-117.3c28-58.8,36.4-110.1,38.8-130.9l120-154.9
			c18.4,9.3,36.9,19.3,55.3,29.7c36.2,21,65.8,39.9,66.1,40.1l20.6,13.1l17-17.5l203.5-209.5l14.2-14.7l-8.4-18.6l-85-187.5
			l178.9-229.7l37.7-48.4h-61.4h-281.2l-45-98.5L1717,449l-11.9-4.3l-200-71.5l-15.4-5.5l-13,9.9l-49,37.5l-6.4,4.9l-3.1,7.5l-3.3,8
			l-70.2-16.3l-29.4-6.8l-0.7,3.2c-61.6-7.2-208.8-21.4-215.2-22.1l-14.3-1.4l-10,10.2l-15.6,15.9l-3.2-25.7l-27.9,1.4l-97,5
			l-0.3-1.1l-11.7,1.7l-25,1.3l-0.2,2.3l-88.1,12.6l-0.5-2.5l-24.3,6l-0.3,0l0,0l-6,1.5l-69,17.1l-6.6-14.1l-4.6-10l-10-4.6
			l-84.5-39L571.2,356.7L571.2,356.7z"/>
	</g>
	<g>
		<path class="st0" d="M681.7,460.3l44.5-157.7l7.2-2.6c1.5-0.5,37.1-13.4,98.8-26.3c56.8-11.9,147.3-26.1,256.5-26.1l0.2,0
			c6.4,0.1,159.6,3.1,299.9,51.3l7.5,2.6l43.8,158.9H681.7z"/>
		<path class="st0" d="M1088.8,262.5c0,0,155.6,2.5,295.2,50.5l36.5,132.3h-719l37-131.3C738.5,314,879.8,262.5,1088.8,262.5
			 M1089,232.5h-0.2c-110.5,0-202.2,14.3-259.6,26.4c-62.8,13.2-99.4,26.4-100.9,26.9l-14.4,5.3l-4.2,14.8l-37,131.3l-10.7,38.1
			h39.6h719h39.4l-10.5-38L1412.9,305l-4.2-15.2l-15-5.1c-41.2-14.2-110.4-33.4-206.2-44.7c-57.2-6.7-96.6-7.4-98.3-7.5L1089,232.5
			L1089,232.5z"/>
	</g>
</g>
<g id="Vektordatei">
	<path class="st1" d="M264.5,832l-187-242h298l52-116.5l127-51.5l13,30.5l20.5-55l84.5,39l17,36.5l93-23l12.5,63.5l12-67.5
		l101.5-14.5L919,475l3.5-45.5L1030,424l12,97.5l1-43.5l53.5-54.5c0,0,160,15.5,219,22.5l10.5,56l12-53.5l95,22l13-31.5l49-37.5
		l200,71.5l53,116h300.5l-190,244l92.5,204l-203.5,209.5c0,0-84-53.5-145.5-83l-141,182c0,0-13,235.5-256,330l-145.5,188l-148-191
		c0,0-212-75-246-320l-147.5-191l-40.5,18l-22-19.5l-8,35.5L372,1240l-201-201L264.5,832z"/>
	<polygon class="st1" points="701.5,445 738.5,314 764.5,305.5 776.5,328 783,300.5 811,293 780,428 750.5,434 764.5,378.5 
		754.5,358 731,438.5 	"/>
	<polygon class="st1" points="805.5,423 833.5,289 888.5,277.5 884.5,303 856,308 851,337.5 880,333.5 875.5,359 847.5,363.5 
		842,390.5 871.5,387 867,414.5 	"/>
	<polygon class="st1" points="930.5,271.5 917.5,380 934.5,378 948,269.5 971,267.5 961.5,375.5 978,374 986.5,265.5 1010.5,265 
		1003.5,387 987,404.5 958,405.5 946.5,396 933,409 902,411.5 888.5,398 906.5,275 	"/>
	<polygon class="st1" points="1057,262.5 1056,349 1071,365 1077,365.5 1077.5,402.5 1102.5,403.5 1102,365.5 1107,366 
		1121.5,351.5 1118.5,264 1095.5,263.5 1096,341 1081,340.5 1081,263 	"/>
	<path class="st1" d="M1203,286.5l-15-16.5l-36.5-3l-13,13l5.5,109l15,17l43,2.5l13-19.5L1203,286.5z M1170.5,377l-7-84.5l14.5,2
		l7.5,83.5L1170.5,377z"/>
	<path class="st1" d="M1308.5,374l-10-11l5.5-9l-10-50l-18-20l-53-9l19,138l28,3.5l-6.5-41l17.5,3l7.5,41l27.5,4.5L1308.5,374z
		 M1259,341l-6-35l15,3l6,33.8L1259,341z"/>
	<polygon class="st1" points="1314,293 1342.5,428.5 1372,435 1362,392 1380.5,396 1391.5,438.5 1420.5,445.5 1403,384 1391.5,371 
		1397.5,362.5 1384,313 1359,305 1371,356 1366.5,363.5 1356,361 1340.5,299.5 	"/>
	<path class="st2" d="M438.5,485.5l92-37l-84,212l91.5-78L596,417l65,29l-52.5,174.5l-90,85.5l43.5,72.5L511,945
		c0,0-69.5,23.5-115.5,44.5L465,789l-17-19l-69,61l-79.5,201.5l-69,44l-42.5-42L438.5,485.5z"/>
	<path class="st2" d="M685.5,488.5L770,468l26.5,126L820,459.5l72-10L841.5,863l-95,18.5l22-122L736,604l-65.5,295
		c0,0-82,20-102.5,28.5L685.5,488.5z"/>
	<polygon class="st2" points="936.2,444 1013.5,440 998.8,845.3 900.2,854 	"/>
	<polygon class="st2" points="1204.2,448 1213.5,516.7 1137.5,513.3 1151.5,765.7 1241.5,771.3 1250.8,856.7 1100.8,847.3 
		1057.5,802 1057.5,484.7 1102.8,439.3 	"/>
	<path class="st2" d="M1229.5,450l54,412c0,0,86.7,12.7,96.7,16l-24.7-129.3l26-34l36,30l32.7,150c0,0,86.7,21.3,106,31.3l-62-223.3
		l-66-53l37.3-49l-30-115.3l-78.7-16l30.7,114l-49.3,64.7l-35.3-188L1229.5,450z"/>
	<path class="st2" d="M1742.2,612.7l-58-128L1496.8,418l-35.3,27.3l62.7,202.7l201.3,140.7l50,127.3l-82.7-36l-28-80.7l-102.7-30
		l54,177.3c0,0,128,44.7,272,132.7l45.3-46l-135.3-296.7l-210.7-140L1552.2,494l64,22.7l26,64.7L1742.2,612.7z"/>
	<polygon class="st3" points="361.5,619.3 135.5,619.3 277.5,802 	"/>
	<polygon class="st1" points="448.8,790 388.8,844 415.8,887.3 	"/>
	<polygon class="st1" points="536.8,710 588.8,796 618.2,686.7 604.8,644.7 	"/>
	<polygon class="st1" points="1219.5,532.7 1195.2,753.3 1166.2,752.7 1152.8,528.7 	"/>
	<polygon class="st1" points="1384.2,736.7 1404.8,754.3 1385.2,821.3 1370.8,752.7 	"/>
	<polyline class="st1" points="1529.5,778.7 1541.5,747.3 1675.5,788.3 1692.2,833.3 1711.5,798 1524.8,666.7 1509.5,706.7 	"/>
	<polygon class="st1" points="1638.2,612 1644.2,596.7 1754.8,632 1731.5,674.7 	"/>
	<polygon class="st3" points="1744.2,682.7 1769.5,633.3 1762.2,619.3 1988.2,619.3 1844.2,804 1810.2,726.3 	"/>
	<polygon class="st3" points="238.8,1087.3 374.8,1221.3 428.8,1190.7 306.2,1045.3 	"/>
	<polygon class="st3" points="490.5,1158.3 598.8,1110 514.2,959.3 382.2,1010.7 	"/>
	<path class="st3" d="M560.8,944.7c0,0,102.7-29.3,116-32l56.7,153.3l-96.7,32C636.8,1098,573.5,980,560.8,944.7z"/>
	<path class="st3" d="M736.8,898.7l106-20.7l16.3,78.7c0,0-51.3,30.7-83.3,66.7L736.8,898.7z"/>
	<path class="st3" d="M896.2,870.7c0,0,72.7-9.3,104.7-10l0.7,45.3c0,0-32,2-97.3,28L896.2,870.7z"/>
	<polygon class="st3" points="1054.2,820 1054.8,902 1090.2,901.3 1090.8,856.7 	"/>
	<path class="st3" d="M1106.2,862.7l-2,40.7c0,0,65.3,2.7,136.7,39.3l12.7-70C1253.5,872.7,1161.5,860.7,1106.2,862.7z"/>
	<path class="st3" d="M1276.8,876c0,0,81,11.7,107,18.3l-39,121.7c0,0-42-39.3-84-63.3L1276.8,876z"/>
	<path class="st3" d="M1442.8,909.3c0,0,49.7,10.3,119,34.3l-78,154l-90.3-23l-8-11.3L1442.8,909.3z"/>
	<path class="st3" d="M1608.2,960c0,0,114.7,36.7,269.3,130l-132.7,138c0,0-101.3-68-222-115.3L1608.2,960z"/>
	<path class="st3" d="M544.8,1149.3l76-32.7l2.7-12.7l6,10.7l97.3-32c0,0-62,82-65.3,217.3L544.8,1149.3z"/>
	<path class="st3" d="M1405.5,1093.3l84.7,21.3l7.3-9.3l2.7,12.7c0,0,64,26,74.7,32l-111.3,146
		C1463.5,1296,1466.2,1192.7,1405.5,1093.3z"/>
	<path class="st3" d="M961.5,1689c0,0,89,28,194.5,2l-96.5,124.5L961.5,1689z"/>
	<path class="st2" d="M713.5,1145.3c0,0,24.7-67.3,89.3-126.7c0,0,81.3,4,98,13.3c0,0-40.7,42-51.3,62.7
		C849.5,1094.7,788.2,1068,713.5,1145.3z"/>
	<path class="st2" d="M823.5,1002.7c0,0,63.3,6,92,16c0,0,48-38.7,64.7-48L924.8,944C924.8,944,847.5,977.3,823.5,1002.7z"/>
	<path class="st2" d="M948.8,936c0,0,52-20.7,140-16.7c0,0-53.3,20-94,41.3L948.8,936z"/>
	<path class="st2" d="M837.5,1109.3c0,0-68.7-18-142.7,86c0,0-71.3,226,110,388C804.8,1583.3,679.5,1346.7,837.5,1109.3z"/>
	<path class="st2" d="M1018.2,968c0,0,93.3-40,106-43.3c0,0,160.7,17.3,260,170c0,0-64.7-65.3-180-88
		C1204.2,1006.7,1050.2,980,1018.2,968z"/>
	<path class="st2" d="M932.2,1025.3l64.7-48.7c0,0,65.3,22,124,30.7c0,0,174,24,239.3,90c0,0,90.7,64.7,84.7,216.7
		c0,0,1.3,110-62.7,197.3c0,0-34-175.3-184-318.7C1198.2,1192.7,1095.5,1077.3,932.2,1025.3z"/>
	<path class="st2" d="M867.5,1098.7c0,0,40.7-52.7,50.7-60c0,0,81.3,17.3,196.7,101.3c0,0,116,92.7,175.3,196.7c0,0,54,80,76,197.3
		c0,0-76.7,108-216.7,138.7c0,0-73.3-63.3-124-218.7l-62-218C963.5,1236,943.5,1135.3,867.5,1098.7z"/>
	<path class="st2" d="M855.5,1114.7c0,0,62.7,14,92.7,131.3c0,0,59.3,228.7,78,263.3c0,0,50.7,115.3,102.7,168
		c0,0-124,38.7-284-60.7c0,0-77.3-104.7-68-260.7C776.8,1356,778.2,1219.3,855.5,1114.7z"/>
	<path class="st1" d="M1405.5,1093.3c0,0,145.5,26.5,342,153.2l-50-40.7l-131-69l-55-21.5l-9.5-20.6l-16,10.6l-30.5-5L1405.5,1093.3
		z"/>
	<path class="st1" d="M726.8,1082.6c0,0-204.8,62.7-354.8,157.4l29.5-29.2l37.5-19.5l10.5-46l34,27.5l126.5-58.1l11-21.9l14.8,15.3
		l94.2-31.6L726.8,1082.6z"/>
</g>
</svg>
